{
  "accessors": [
    {
      "bufferView": 2,
      "componentType": 5126,
      "count": 8108,
      "max": [
        10.945795059204102,
        3.6269969940185547,
        3.347892999649048
      ],
      "min": [
        -4.162594795227051,
        -3.6269969940185547,
        0.6188669800758362
      ],
      "type": "VEC3"
    },
    {
      "bufferView": 2,
      "byteOffset": 97296,
      "componentType": 5126,
      "count": 8108,
      "max": [
        1.0,
        1.0,
        1.0
      ],
      "min": [
        -1.0,
        -1.0,
        -1.0
      ],
      "type": "VEC3"
    },
    {
      "bufferView": 1,
      "componentType": 5126,
      "count": 8108,
      "max": [
        1.0,
        1.0
      ],
      "min": [
        0.0,
        0.0
      ],
      "type": "VEC2"
    },
    {
      "bufferView": 0,
      "componentType": 5125,
      "count": 25032,
      "type": "SCALAR"
    },
    {
      "bufferView": 2,
      "byteOffset": 194592,
      "componentType": 5126,
      "count": 8503,
      "max": [
        4.800674915313721,
        3.819999933242798,
        4.1845011711120605
      ],
      "min": [
        2.7351319789886475,
        -3.819999933242798,
        1.966588020324707
      ],
      "type": "VEC3"
    },
    {
      "bufferView": 2,
      "byteOffset": 296628,
      "componentType": 5126,
      "count": 8503,
      "max": [
        1.0,
        1.0,
        1.0
      ],
      "min": [
        -1.0,
        -1.0,
        -1.0
      ],
      "type": "VEC3"
    },
    {
      "bufferView": 1,
      "byteOffset": 64864,
      "componentType": 5126,
      "count": 8503,
      "max": [
        0.875,
        1.0
      ],
      "min": [
        0.1211329996585846,
        0.0
      ],
      "type": "VEC2"
    },
    {
      "bufferView": 0,
      "byteOffset": 100128,
      "componentType": 5125,
      "count": 23823,
      "type": "SCALAR"
    },
    {
      "bufferView": 2,
      "byteOffset": 398664,
      "componentType": 5126,
      "count": 5743,
      "max": [
        9.17584228515625,
        1.288280963897705,
        5.416048049926758
      ],
      "min": [
        -9.549478530883789,
        -1.288280963897705,
        1.1180980205535889
      ],
      "type": "VEC3"
    },
    {
      "bufferView": 2,
      "byteOffset": 467580,
      "componentType": 5126,
      "count": 5743,
      "max": [
        1.0,
        1.0,
        1.0
      ],
      "min": [
        -1.0,
        -1.0,
        -1.0
      ],
      "type": "VEC3"
    },
    {
      "bufferView": 1,
      "byteOffset": 132888,
      "componentType": 5126,
      "count": 5743,
      "max": [
        1.0000059604644775,
        1.0
      ],
      "min": [
        -6.000000212225132e-06,
        0.0
      ],
      "type": "VEC2"
    },
    {
      "bufferView": 0,
      "byteOffset": 195420,
      "componentType": 5125,
      "count": 21642,
      "type": "SCALAR"
    },
    {
      "bufferView": 2,
      "byteOffset": 536496,
      "componentType": 5126,
      "count": 30851,
      "max": [
        13.259333610534668,
        9.346760749816895,
        5.623658180236816
      ],
      "min": [
        -5.2622480392456055,
        -9.726472854614258,
        4.684103012084961
      ],
      "type": "VEC3"
    },
    {
      "bufferView": 2,
      "byteOffset": 906708,
      "componentType": 5126,
      "count": 30851,
      "max": [
        0.9999982118606567,
        0.9999622106552124,
        1.0
      ],
      "min": [
        -0.9999622106552124,
        -0.999985933303833,
        -1.0
      ],
      "type": "VEC3"
    },
    {
      "bufferView": 1,
      "byteOffset": 178832,
      "componentType": 5126,
      "count": 30851,
      "max": [
        1.0,
        1.0
      ],
      "min": [
        0.0,
        0.0
      ],
      "type": "VEC2"
    },
    {
      "bufferView": 0,
      "byteOffset": 281988,
      "componentType": 5125,
      "count": 89316,
      "type": "SCALAR"
    },
    {
      "bufferView": 2,
      "byteOffset": 1276920,
      "componentType": 5126,
      "count": 9832,
      "max": [
        9.489505767822266,
        2.3423969745635986,
        5.457714080810547
      ],
      "min": [
        -9.58411979675293,
        -2.3423969745635986,
        -0.024470999836921692
      ],
      "type": "VEC3"
    },
    {
      "bufferView": 2,
      "byteOffset": 1394904,
      "componentType": 5126,
      "count": 9832,
      "max": [
        1.0,
        1.0,
        1.0
      ],
      "min": [
        -1.0,
        -1.0,
        -1.0
      ],
      "type": "VEC3"
    },
    {
      "bufferView": 1,
      "byteOffset": 425640,
      "componentType": 5126,
      "count": 9832,
      "max": [
        1.0,
        1.0
      ],
      "min": [
        0.0,
        0.0
      ],
      "type": "VEC2"
    },
    {
      "bufferView": 0,
      "byteOffset": 639252,
      "componentType": 5125,
      "count": 29520,
      "type": "SCALAR"
    },
    {
      "bufferView": 2,
      "byteOffset": 1512888,
      "componentType": 5126,
      "count": 9783,
      "max": [
        8.680970191955566,
        2.0967979431152344,
        4.485660076141357
      ],
      "min": [
        -6.629094123840332,
        -2.0967979431152344,
        -0.024470999836921692
      ],
      "type": "VEC3"
    },
    {
      "bufferView": 2,
      "byteOffset": 1630284,
      "componentType": 5126,
      "count": 9783,
      "max": [
        1.0,
        1.0,
        1.0
      ],
      "min": [
        -1.0,
        -1.0,
        -1.0
      ],
      "type": "VEC3"
    },
    {
      "bufferView": 1,
      "byteOffset": 504296,
      "componentType": 5126,
      "count": 9783,
      "max": [
        1.0,
        1.0
      ],
      "min": [
        0.0,
        0.0
      ],
      "type": "VEC2"
    },
    {
      "bufferView": 0,
      "byteOffset": 757332,
      "componentType": 5125,
      "count": 24222,
      "type": "SCALAR"
    },
    {
      "bufferView": 2,
      "byteOffset": 1747680,
      "componentType": 5126,
      "count": 8092,
      "max": [
        10.033251762390137,
        1.899999976158142,
        4.415802955627441
      ],
      "min": [
        -7.639411926269531,
        -2.1726059913635254,
        0.17673300206661224
      ],
      "type": "VEC3"
    },
    {
      "bufferView": 2,
      "byteOffset": 1844784,
      "componentType": 5126,
      "count": 8092,
      "max": [
        1.0,
        1.0,
        1.0
      ],
      "min": [
        -1.0,
        -1.0,
        -1.0
      ],
      "type": "VEC3"
    },
    {
      "bufferView": 1,
      "byteOffset": 582560,
      "componentType": 5126,
      "count": 8092,
      "max": [
        1.0,
        1.0
      ],
      "min": [
        0.0,
        0.0
      ],
      "type": "VEC2"
    },
    {
      "bufferView": 0,
      "byteOffset": 854220,
      "componentType": 5125,
      "count": 19197,
      "type": "SCALAR"
    },
    {
      "bufferView": 2,
      "byteOffset": 1941888,
      "componentType": 5126,
      "count": 8444,
      "max": [
        3.300218105316162,
        2.1726059913635254,
        7.133670806884766
      ],
      "min": [
        -11.533647537231445,
        -0.18099799752235413,
        0.7340710163116455
      ],
      "type": "VEC3"
    },
    {
      "bufferView": 2,
      "byteOffset": 2043216,
      "componentType": 5126,
      "count": 8444,
      "max": [
        1.0,
        1.0,
        1.0
      ],
      "min": [
        -1.0,
        -1.0,
        -1.0
      ],
      "type": "VEC3"
    },
    {
      "bufferView": 1,
      "byteOffset": 647296,
      "componentType": 5126,
      "count": 8444,
      "max": [
        1.0,
        1.0
      ],
      "min": [
        0.0,
        0.0
      ],
      "type": "VEC2"
    },
    {
      "bufferView": 0,
      "byteOffset": 931008,
      "componentType": 5125,
      "count": 22284,
      "type": "SCALAR"
    }
  ],
  "asset": {
    "extras": {
      "author": "EXcalibur117 (https://sketchfab.com/EXcalibur117)",
      "license": "SKETCHFAB Standard (https://sketchfab.com/licenses)",
      "source": "https://sketchfab.com/3d-models/odmi-17-1skm-171-976158476f634c64834353dc28a24228",
      "title": "[OD]Mi-17-1SKM 米171改进型运输直升机"
    },
    "generator": "Sketchfab-16.32.0",
    "version": "2.0"
  },
  "bufferViews": [
    {
      "buffer": 0,
      "byteLength": 1020144,
      "name": "floatBufferViews",
      "target": 34963
    },
    {
      "buffer": 0,
      "byteLength": 714848,
      "byteOffset": 1020144,
      "byteStride": 8,
      "name": "floatBufferViews",
      "target": 34962
    },
    {
      "buffer": 0,
      "byteLength": 2144544,
      "byteOffset": 1734992,
      "byteStride": 12,
      "name": "floatBufferViews",
      "target": 34962
    }
  ],
  "buffers": [
    {
      "byteLength": 3879536,
      "uri": "scene.bin"
    }
  ],
  "materials": [
    {
      "doubleSided": true,
      "name": "material_0",
      "pbrMetallicRoughness": {
        "baseColorFactor": [
          0.6191433227151344,
          0.6191433227151344,
          0.6191433227151344,
          1.0
        ],
        "metallicFactor": 0.0,
        "roughnessFactor": 0.6
      }
    }
  ],
  "meshes": [
    {
      "name": "Object_0",
      "primitives": [
        {
          "attributes": {
            "NORMAL": 1,
            "POSITION": 0,
            "TEXCOORD_0": 2
          },
          "indices": 3,
          "material": 0,
          "mode": 4
        }
      ]
    },
    {
      "name": "Object_1",
      "primitives": [
        {
          "attributes": {
            "NORMAL": 5,
            "POSITION": 4,
            "TEXCOORD_0": 6
          },
          "indices": 7,
          "material": 0,
          "mode": 4
        }
      ]
    },
    {
      "name": "Object_2",
      "primitives": [
        {
          "attributes": {
            "NORMAL": 9,
            "POSITION": 8,
            "TEXCOORD_0": 10
          },
          "indices": 11,
          "material": 0,
          "mode": 4
        }
      ]
    },
    {
      "name": "Object_3",
      "primitives": [
        {
          "attributes": {
            "NORMAL": 13,
            "POSITION": 12,
            "TEXCOORD_0": 14
          },
          "indices": 15,
          "material": 0,
          "mode": 4
        }
      ]
    },
    {
      "name": "Object_4",
      "primitives": [
        {
          "attributes": {
            "NORMAL": 17,
            "POSITION": 16,
            "TEXCOORD_0": 18
          },
          "indices": 19,
          "material": 0,
          "mode": 4
        }
      ]
    },
    {
      "name": "Object_5",
      "primitives": [
        {
          "attributes": {
            "NORMAL": 21,
            "POSITION": 20,
            "TEXCOORD_0": 22
          },
          "indices": 23,
          "material": 0,
          "mode": 4
        }
      ]
    },
    {
      "name": "Object_6",
      "primitives": [
        {
          "attributes": {
            "NORMAL": 25,
            "POSITION": 24,
            "TEXCOORD_0": 26
          },
          "indices": 27,
          "material": 0,
          "mode": 4
        }
      ]
    },
    {
      "name": "Object_7",
      "primitives": [
        {
          "attributes": {
            "NORMAL": 29,
            "POSITION": 28,
            "TEXCOORD_0": 30
          },
          "indices": 31,
          "material": 0,
          "mode": 4
        }
      ]
    }
  ],
  "nodes": [
    {
      "children": [
        1
      ],
      "matrix": [
        1.0,
        0.0,
        0.0,
        0.0,
        0.0,
        2.220446049250313e-16,
        -1.0,
        0.0,
        0.0,
        1.0,
        2.220446049250313e-16,
        0.0,
        0.0,
        0.0,
        0.0,
        1.0
      ],
      "name": "Sketchfab_model"
    },
    {
      "children": [
        2,
        3,
        4,
        5,
        6,
        7,
        8,
        9
      ],
      "name": "Mi-171.obj.cleaner.materialmerger.gles"
    },
    {
      "mesh": 0,
      "name": "Object_2"
    },
    {
      "mesh": 1,
      "name": "Object_3"
    },
    {
      "mesh": 2,
      "name": "Object_4"
    },
    {
      "mesh": 3,
      "name": "Object_5"
    },
    {
      "mesh": 4,
      "name": "Object_6"
    },
    {
      "mesh": 5,
      "name": "Object_7"
    },
    {
      "mesh": 6,
      "name": "Object_8"
    },
    {
      "mesh": 7,
      "name": "Object_9"
    }
  ],
  "scene": 0,
  "scenes": [
    {
      "name": "Sketchfab_Scene",
      "nodes": [
        0
      ]
    }
  ]
}
