{
  "accessors": [
    {
      "bufferView": 2,
      "componentType": 5126,
      "count": 2577,
      "max": [
        2.1187551021575928,
        0.37383830547332764,
        0.37383830547332764
      ],
      "min": [
        -1.5812448263168335,
        -0.37383830547332764,
        -0.37383830547332764
      ],
      "type": "VEC3"
    },
    {
      "bufferView": 2,
      "byteOffset": 30924,
      "componentType": 5126,
      "count": 2577,
      "max": [
        1.0,
        1.0,
        1.0
      ],
      "min": [
        -1.0,
        -1.0,
        -1.0
      ],
      "type": "VEC3"
    },
    {
      "bufferView": 3,
      "componentType": 5126,
      "count": 2577,
      "max": [
        1.0,
        1.0,
        1.0,
        1.0
      ],
      "min": [
        -1.0,
        -1.0,
        -1.0,
        -1.0
      ],
      "type": "VEC4"
    },
    {
      "bufferView": 1,
      "componentType": 5126,
      "count": 2577,
      "max": [
        0.9831132888793945,
        0.9970202445983887
      ],
      "min": [
        0.022765155881643295,
        0.025813549757003784
      ],
      "type": "VEC2"
    },
    {
      "bufferView": 1,
      "byteOffset": 20616,
      "componentType": 5126,
      "count": 2577,
      "max": [
        0.9831132888793945,
        0.9970202445983887
      ],
      "min": [
        0.022765155881643295,
        0.025813549757003784
      ],
      "type": "VEC2"
    },
    {
      "bufferView": 1,
      "byteOffset": 41232,
      "componentType": 5126,
      "count": 2577,
      "max": [
        0.9831132888793945,
        0.9970202445983887
      ],
      "min": [
        0.022765155881643295,
        0.025813549757003784
      ],
      "type": "VEC2"
    },
    {
      "bufferView": 0,
      "componentType": 5125,
      "count": 7398,
      "type": "SCALAR"
    }
  ],
  "asset": {
    "extras": {
      "author": "Mustafa.Garip (https://sketchfab.com/Mustafa.Garip)",
      "license": "CC-BY-4.0 (http://creativecommons.org/licenses/by/4.0/)",
      "source": "https://sketchfab.com/3d-models/game-ready-low-poly-aim-120-81b5a823252f49e7846efb5cd81f1725",
      "title": "Game Ready Low Poly Aim-120"
    },
    "generator": "Sketchfab-13.88.0",
    "version": "2.0"
  },
  "bufferViews": [
    {
      "buffer": 0,
      "byteLength": 29592,
      "name": "floatBufferViews",
      "target": 34963
    },
    {
      "buffer": 0,
      "byteLength": 61848,
      "byteOffset": 29592,
      "byteStride": 8,
      "name": "floatBufferViews",
      "target": 34962
    },
    {
      "buffer": 0,
      "byteLength": 61848,
      "byteOffset": 91440,
      "byteStride": 12,
      "name": "floatBufferViews",
      "target": 34962
    },
    {
      "buffer": 0,
      "byteLength": 41232,
      "byteOffset": 153288,
      "byteStride": 16,
      "name": "floatBufferViews",
      "target": 34962
    }
  ],
  "buffers": [
    {
      "byteLength": 194520,
      "uri": "scene.bin"
    }
  ],
  "images": [
    {
      "uri": "textures/Aim-120_material_baseColor.png"
    },
    {
      "uri": "textures/Aim-120_material_metallicRoughness.png"
    },
    {
      "uri": "textures/Aim-120_material_normal.png"
    }
  ],
  "materials": [
    {
      "doubleSided": true,
      "name": "Aim-120_material",
      "normalTexture": {
        "index": 2,
        "texCoord": 1
      },
      "pbrMetallicRoughness": {
        "baseColorTexture": {
          "index": 0
        },
        "metallicRoughnessTexture": {
          "index": 1
        }
      }
    }
  ],
  "meshes": [
    {
      "name": "Aim-120_Aim-120_material_0",
      "primitives": [
        {
          "attributes": {
            "NORMAL": 1,
            "POSITION": 0,
            "TANGENT": 2,
            "TEXCOORD_0": 3,
            "TEXCOORD_1": 4,
            "TEXCOORD_2": 5
          },
          "indices": 6,
          "material": 0,
          "mode": 4
        }
      ]
    }
  ],
  "nodes": [
    {
      "children": [
        1
      ],
      "matrix": [
        1.0,
        0.0,
        0.0,
        0.0,
        0.0,
        2.220446049250313e-16,
        -1.0,
        0.0,
        0.0,
        1.0,
        2.220446049250313e-16,
        0.0,
        0.0,
        0.0,
        0.0,
        1.0
      ],
      "name": "Sketchfab_model"
    },
    {
      "children": [
        2
      ],
      "matrix": [
        0.009999999776482582,
        0.0,
        0.0,
        0.0,
        0.0,
        0.0,
        0.009999999776482582,
        0.0,
        0.0,
        -0.009999999776482582,
        0.0,
        0.0,
        0.0,
        0.0,
        0.0,
        1.0
      ],
      "name": "Aim-120.fbx"
    },
    {
      "children": [
        3
      ],
      "name": "RootNode"
    },
    {
      "children": [
        4
      ],
      "matrix": [
        100.0,
        0.0,
        0.0,
        0.0,
        0.0,
        -70.71067854026296,
        -70.71067769704658,
        0.0,
        0.0,
        70.71067769704658,
        -70.71067854026296,
        0.0,
        0.0,
        0.0,
        0.0,
        1.0
      ],
      "name": "Aim-120"
    },
    {
      "mesh": 0,
      "name": "Aim-120_Aim-120_material_0"
    }
  ],
  "samplers": [
    {
      "magFilter": 9729,
      "minFilter": 9987,
      "wrapS": 10497,
      "wrapT": 10497
    }
  ],
  "scene": 0,
  "scenes": [
    {
      "name": "Sketchfab_Scene",
      "nodes": [
        0
      ]
    }
  ],
  "textures": [
    {
      "sampler": 0,
      "source": 0
    },
    {
      "sampler": 0,
      "source": 1
    },
    {
      "sampler": 0,
      "source": 2
    }
  ]
}
